<svg height="512" viewBox="0 0 512 512" width="512" xmlns="http://www.w3.org/2000/svg"><g id="Flat"><path d="m488 256a230.892 230.892 0 0 1 -27.39 109.44q-3.78 7.065-8.05 13.83a231.782 231.782 0 0 1 -188.56 108.59c-2.66.09-5.32.14-8 .14s-5.34-.05-8-.14a231.825 231.825 0 0 1 -188.88-109.08q-4.245-6.78-8.01-13.86a232.36 232.36 0 0 1 .09-218.01q3.78-7.08 8.02-13.85a231.818 231.818 0 0 1 188.78-108.92c2.66-.09 5.32-.14 8-.14s5.34.05 8 .14a231.852 231.852 0 0 1 188.86 109.05q4.245 6.78 8.01 13.86a230.888 230.888 0 0 1 27.13 108.95z" fill="#f5a12c"/><circle cx="256" cy="256" fill="#fcc50f" r="192"/><path d="m360 168a16 16 0 1 1 16-16 16.019 16.019 0 0 1 -16 16z" fill="#914616"/><circle cx="224" cy="184" fill="#914616" r="16"/><circle cx="400" cy="288" fill="#914616" r="16"/><circle cx="296" cy="320" fill="#914616" r="16"/><circle cx="224" cy="400" fill="#914616" r="16"/><circle cx="152" cy="272" fill="#914616" r="16"/><circle cx="164" cy="148" fill="#e05114" r="28"/><circle cx="308" cy="124" fill="#e05114" r="28"/><circle cx="356" cy="252" fill="#e05114" r="28"/><circle cx="308" cy="380" fill="#e05114" r="28"/><circle cx="164" cy="364" fill="#e05114" r="28"/><circle cx="116" cy="228" fill="#e05114" r="28"/><g fill="#fadd5c"><path d="m192 96h16v16h-16z"/><path d="m216 128h16v16h-16z"/><path d="m280 184h16v16h-16z"/><path d="m312 168h16v16h-16z"/><path d="m384 208h16v16h-16z"/><path d="m400 240h16v16h-16z"/><path d="m336 328h16v16h-16z"/><path d="m352 360h16v16h-16z"/><path d="m200 312h16v16h-16z"/><path d="m216 344h16v16h-16z"/><path d="m104 280h16v16h-16z"/><path d="m168 232h16v16h-16z"/></g><path d="m272 256 188.61 109.44q-3.78 7.065-8.05 13.83l-188.56-109.41v218c-2.66.09-5.32.14-8 .14s-5.34-.05-8-.14v-218l-188.88 108.92q-4.245-6.78-8.01-13.86l188.89-108.92-188.8-109.09q3.78-7.08 8.02-13.85l188.78 109.08v-218c2.66-.09 5.32-.14 8-.14s5.34.05 8 .14v218l188.86-108.95q4.245 6.78 8.01 13.86z" fill="#ed961c"/></g></svg>